<svg viewBox="0 0 380 240" xmlns="http://www.w3.org/2000/svg"><rect width="380" height="240" fill="#54e0a6"/><g fill="#9ef0cb"><rect x="40" y="70" width="46" height="130" rx="3"/><rect x="98" y="42" width="40" height="158" rx="3"/><rect x="248" y="58" width="44" height="142" rx="3"/><rect x="302" y="90" width="40" height="110" rx="3"/></g><g fill="#54e0a6"><rect x="50" y="82" width="10" height="12"/><rect x="66" y="82" width="10" height="12"/><rect x="50" y="104" width="10" height="12"/><rect x="66" y="104" width="10" height="12"/><rect x="108" y="56" width="9" height="12"/><rect x="122" y="56" width="9" height="12"/><rect x="108" y="78" width="9" height="12"/><rect x="122" y="78" width="9" height="12"/><rect x="258" y="72" width="10" height="12"/><rect x="274" y="72" width="10" height="12"/><rect x="258" y="94" width="10" height="12"/><rect x="274" y="94" width="10" height="12"/></g><g stroke="#1f4d3c" stroke-width="3" stroke-linecap="round" stroke-linejoin="round" fill="none"><circle cx="186" cy="76" r="15" fill="#f4a261"/><path d="M171 74c0-12 8-18 15-18s15 6 15 16" fill="#5b3fd6"/><path d="M180 108l16-14 18 14-10 22" fill="#fff"/><path d="M176 200l14-38 22-18" stroke-width="8" stroke="#e8447a"/><path d="M212 144l16 20-6 36" stroke-width="8" stroke="#e8447a"/><path d="M186 96l-22 16 4 22" stroke-width="7" stroke="#fff"/><path d="M204 96l24 14" stroke-width="7" stroke="#fff"/></g></svg>
