<svg xmlns="http://www.w3.org/2000/svg" viewBox="0 0 380 240"><rect width="380" height="240" fill="#2fe0f5"/><g fill="none" stroke="#1b3f52" stroke-linejoin="round" stroke-width="3"><rect width="66" height="52" x="150" y="52" fill="#fff" rx="3"/><rect width="58" height="46" x="232" y="58" fill="#fff" rx="3"/><rect width="52" height="42" x="118" y="150" fill="#fff" rx="3"/><path d="M104 196h150"/><path d="M124 196v34M234 196v34"/><path fill="#fff" d="M160 196l-14-30h72l14 30"/><circle cx="150" cy="118" r="17" fill="#f4a261"/><path fill="#fff" d="M133 196v-42a17 17 0 0 1 34 0v42"/><rect width="46" height="24" x="96" y="176" fill="#ffd23f" rx="3"/><path fill="#7ad39a" d="M262 178c-8-16 4-30 16-30s22 14 14 30Z"/><path fill="#fff" d="M266 178h30v22h-30Z"/></g><g fill="#1b3f52" opacity=".8"><rect width="14" height="10" x="158" y="60" rx="2"/><rect width="14" height="10" x="176" y="60" rx="2"/><rect width="14" height="10" x="194" y="60" rx="2"/><rect width="12" height="10" x="240" y="66" rx="2"/><rect width="12" height="10" x="256" y="66" rx="2"/><rect width="12" height="10" x="272" y="66" rx="2"/></g></svg>